:SAMPLES-PER-SECOND 30
:FULLY-SPECIFIED
:DEGREES
438
root  -3.15137 40.9197 0.809769 -79.4808 -89.4268 78.1344
RightUpLeg  5.97775 -2.5117 -2.48334
RightLeg  -1.15296 -18.7737 0.485755
RightFoot  -1.57918 -0.334129 3.8426
RightToes  -3.13006e-008 1.75238e-005 3.56266e-009
Spine  -9.10838 -1.11081 -0.0690813
Spine1  13.5221 -0.452666 -2.3523
HEad  -5.20052 -6.45023 -11.141
LeftShoulder1  3.47571 -7.13184 -26.5776
LeftArm  -33.7131 -18.6071 -50.6491
LeftForeArm  111.689 -80.6636 -94.6471
LeftHand  -0.491913 -3.38919 6.74073
RightShoulder  2.97619 6.65368 23.1194
RightArm  -30.4097 19.8939 32.869
RightForeArm  137.932 76.0106 135.208
RightHand  0.021695 6.42634 -0.132478
LeftUpLeg  5.46726 1.35715 1.65751
LeftLeg  -2.15026 12.6009 -1.22383
LeftFoot  -1.0322 0.268252 -2.86153
LeftToes  4.76866e-008 1.46233e-008 1.30548e-009
439
root  -3.09334 40.9198 0.800787 -64.3752 -89.237 62.9148
RightUpLeg  5.99519 -2.58421 -2.57737
RightLeg  -1.06393 -18.9062 0.453331
RightFoot  -1.58552 -0.331443 3.81681
RightToes  -3.13006e-008 1.75238e-005 3.56266e-009
Spine  -8.89699 -1.24022 0.0237914
Spine1  13.6237 -0.517547 -2.59605
HEad  -4.1115 -7.82198 -13.2404
LeftShoulder1  3.59265 -7.30908 -27.1437
LeftArm  -34.2174 -18.6499 -50.5724
LeftForeArm  107.545 -80.7318 -89.6572
LeftHand  -0.58063 -3.58443 7.76909
RightShoulder  3.03671 6.73152 23.5074
RightArm  -30.6288 19.1116 32.528
RightForeArm  141.211 75.3649 137.914
RightHand  0.0161341 6.51475 -0.186303
LeftUpLeg  5.48042 1.29719 1.56564
LeftLeg  -2.19014 12.4677 -1.23614
LeftFoot  -0.873306 0.260157 -2.73394
LeftToes  4.76866e-008 1.46233e-008 1.30548e-009
440
root  -3.01075 40.9198 0.786206 -41.2308 -88.9027 39.6839
RightUpLeg  5.98468 -2.57544 -2.56237
RightLeg  -0.99683 -19.3821 0.402442
RightFoot  -1.58234 -0.340159 3.96615
RightToes  -3.13006e-008 1.75238e-005 3.56266e-009
Spine  -8.51211 -1.60789 0.286441
Spine1  13.6162 -0.733193 -3.24944
HEad  -2.9359 -9.83404 -15.1351
LeftShoulder1  3.64965 -7.36434 -27.5126
LeftArm  -35.4126 -18.7483 -50.6202
LeftForeArm  101.828 -80.6299 -85.5359
LeftHand  -0.55392 -3.15113 7.77035
RightShoulder  3.18538 6.95926 24.3253
RightArm  -30.8644 18.2842 32.0171
RightForeArm  144.737 74.5402 140.887
RightHand  -0.0153843 6.93312 -0.500679
LeftUpLeg  5.34394 1.31495 1.58939
LeftLeg  -2.12721 11.9404 -1.26162
LeftFoot  -0.731942 0.262032 -2.7554
LeftToes  4.76866e-008 1.46233e-008 1.30548e-009
441
root  -2.9091 40.9196 0.758087 -34.4995 -88.4109 32.6351
RightUpLeg  6.13124 -2.72944 -2.69467
RightLeg  -0.761608 -19.717 0.357387
RightFoot  -1.68394 -0.332076 3.85259
RightToes  -3.13006e-008 1.75238e-005 3.56266e-009
Spine  -7.68887 -2.18685 0.280198
Spine1  13.6655 -1.12563 -3.93762
HEad  -2.18772 -11.3149 -17.2675
LeftShoulder1  3.66038 -7.27502 -27.8959
LeftArm  -37.1045 -18.2966 -50.7008
LeftForeArm  96.871 -80.49 -82.517
LeftHand  -0.570287 -2.64373 8.46259
RightShoulder  3.29166 7.12513 24.8783
RightArm  -30.7222 17.7589 31.9621
RightForeArm  147.432 73.6683 143.477
RightHand  -0.0351816 6.68305 -0.685908
LeftUpLeg  5.42159 1.30331 1.51298
LeftLeg  -2.03566 11.4569 -1.27229
LeftFoot  -0.61664 0.265938 -2.80145
LeftToes  4.76866e-008 1.46233e-008 1.30548e-009
442
root  -2.79325 40.9191 0.729736 -27.7394 -87.8144 25.5435
RightUpLeg  6.3339 -2.87423 -2.77414
RightLeg  -0.642729 -20.1917 0.366814
RightFoot  -1.69857 -0.324614 3.74622
RightToes  -3.13006e-008 1.75238e-005 3.56266e-009
Spine  -6.90945 -2.77162 -0.0661735
Spine1  14.1754 -1.6268 -4.14778
HEad  -1.67628 -12.5377 -19.16
LeftShoulder1  3.877 -7.57892 -28.9519
LeftArm  -39.2599 -17.5003 -50.533
LeftForeArm  92.2797 -80.3005 -81.4035
LeftHand  -0.600591 -2.14895 9.44051
RightShoulder  3.26144 7.01661 24.9119
RightArm  -30.8545 17.1719 32.1278
RightForeArm  150.57 72.5585 146.354
RightHand  -0.00356864 6.93793 -0.387438
LeftUpLeg  5.46286 1.28103 1.47245
LeftLeg  -1.93019 10.8689 -1.23216
LeftFoot  -0.439425 0.261937 -2.71656
LeftToes  4.76866e-008 1.46233e-008 1.30548e-009
443
root  -2.64237 40.9178 0.679599 -22.7637 -87.2967 20.4425
RightUpLeg  6.13581 -2.84832 -2.67108
RightLeg  -0.295258 -20.8047 0.262696
RightFoot  -1.74488 -0.321716 3.70792
RightToes  -3.13006e-008 1.75238e-005 3.56266e-009
Spine  -6.4265 -3.29674 -0.193761
Spine1  15.0467 -1.93231 -4.82684
HEad  -1.9293 -13.7596 -20.3023
LeftShoulder1  4.01287 -7.75154 -29.6357
LeftArm  -41.5294 -17.1788 -51.0428
LeftForeArm  83.5785 -79.9547 -77.0816
LeftHand  -0.573348 -1.62246 9.67164
RightShoulder  3.22823 6.85223 25.0905
RightArm  -31.0181 16.9101 31.908
RightForeArm  152.16 71.4745 148.593
RightHand  -0.00140969 7.12812 -0.368578
LeftUpLeg  5.15722 1.31923 1.56959
LeftLeg  -1.67329 10.2365 -1.19317
LeftFoot  -0.303754 0.267191 -2.74677
LeftToes  4.76866e-008 1.46233e-008 1.30548e-009
444
root  -2.5292 40.9147 0.632169 -19.3915 -86.921 17.1187
RightUpLeg  5.85869 -2.76505 -2.52652
RightLeg  -0.108635 -21.3342 0.218432
RightFoot  -1.74584 -0.317116 3.64014
RightToes  -3.13006e-008 1.75238e-005 3.56266e-009
Spine  -6.37442 -3.82289 0.096126
Spine1  16.0483 -2.05224 -6.18355
HEad  -1.66054 -14.7319 -20.7948
LeftShoulder1  4.12337 -7.88206 -30.2069
LeftArm  -43.7078 -16.269 -51.4043
LeftForeArm  74.185 -79.5017 -72.383
LeftHand  -0.556128 -0.975652 10.2725
RightShoulder  3.32724 7.04292 25.4854
RightArm  -31.2711 16.5781 31.5758
RightForeArm  153.317 70.4244 150.485
RightHand  0.0237314 6.71107 -0.121338
LeftUpLeg  4.74007 1.256 1.63706
LeftLeg  -1.41103 9.91136 -1.05176
LeftFoot  -0.212915 0.287187 -2.93541
LeftToes  4.76866e-008 1.46233e-008 1.30548e-009
